<svg xmlns="http://www.w3.org/2000/svg" width="774" height="405.597" viewBox="0 0 774 405.597">
  <g id="Group_1384" data-name="Group 1384" transform="translate(-41 -99.081)">
    <path id="Path_6027" data-name="Path 6027" d="M234.824,188.1,125.452,415.777h38.215l26.176-55.3h100.58l24.67,55.3h38.8L248.385,188.1Zm6.293,62.669,34.861,77.416H204.6Z" fill="#0093d6"/>
    <rect id="Rectangle_223" data-name="Rectangle 223" width="35.465" height="227.689" transform="translate(390.829 188.095)" fill="#0093d6"/>
    <path id="Path_6028" data-name="Path 6028" d="M612.269,297.213H709.36v7.526q0,25.641-6.23,45.4-6.081,18.3-20.54,34.223-32.73,35.7-83.241,35.67-49.333,0-84.466-34.482-35.166-34.67-35.161-83.175,0-49.534,35.77-84.043,35.769-34.673,87.033-34.654a122.872,122.872,0,0,1,51.45,10.856q22.821,10.863,44.888,35.3L673.6,253.27q-28.9-37.308-70.456-37.3-37.278,0-62.55,24.928-25.242,24.479-25.262,61.319,0,38.066,28.165,62.685,26.329,22.867,57.056,22.856,26.181,0,47.036-17.058,20.834-17.209,23.284-41.185h-58.6Z" fill="#0093d6"/>
    <path id="Path_6029" data-name="Path 6029" d="M41,504.678H815V99.081H41ZM73.189,130.359H782.8V473.412H73.189Z" fill="#0093d6"/>
  </g>
</svg>
