<svg xmlns="http://www.w3.org/2000/svg" width="878.138" height="373.767" viewBox="0 0 878.138 373.767">
  <g id="Disney" transform="translate(0 -184.384)">
    <path id="path2665" d="M273.854,40.529c-7.865.126-26.669,2.309-30.98,2.833-5.284.656-10.513,1.352-16.069,2.168-4.454.632-18.552,3.342-20.34,3.917-4.869,1.511-6.418,4.1-4.063,8.769,1.964,3.989,5.243,6.108,9.586,7.747,3.888,1.471,11.152,3.151,11.152,3.151s-2.73,7.555-4.478,12.512c-1.253,3.526-2.722,7.922-5.013,8.481a7.078,7.078,0,0,1-1.3.153c-5.747.608-9.18,3.749-9.028,8.178.128,2.9,2.3,11.937,2.147,13.28a5.618,5.618,0,0,1-.424,1.59c-3.656,9.8-5,10.113-6.409,17.252-1.525,7.651-1.6,14.662,1.158,21.785.383,1.007.782,1.88,1.309,3.087a59.781,59.781,0,0,0,3.792,6.108,30.983,30.983,0,0,0,3.447,3.406v0c.766.6,3.026,2.1,3.026,2.1a26.275,26.275,0,0,0,5.277,2.454c6.027,1.577,7.7,2.341,14.584,1.566,14.9-1.663,34.885-11.368,46.579-20.322,3.7-2.83,6.721-5.46,6.553-9.433-.192-4.221-1.6-7.147-4.3-10.641-3.129-3.949-6.122-3.526-12.069-2.574-11.064,1.743-24.546,3.741-33.615,5.4a33.654,33.654,0,0,1-5.876.576c-1.253,0-2.761-.065-2.761-.065s1.613-6.021,3.5-11.929c1.868-5.668,4.015-11.28,4.015-11.28s2.658-.4,5.173-.671c4.031-.472,33.757-.649,36.407-1.072,5.125-.863,6.339-3.83,6.068-10.274-.2-5.508-1.916-9.33-6.881-10.433a34.634,34.634,0,0,0-6.051-.406c-9.723.04-27.028.223-27.028.223l4.917-16.462s9.746.119,16.794.046c4.43-.048,28.586-.391,36.041-4.924,4.853-2.982,2.658-8.483-.559-13.112-5.979-8.674-12.62-12.9-22.854-13.191-.42-.011-.9-.012-1.42,0Z" transform="translate(458.191 278.358)"/>
    <path id="path2671" d="M78.319.014q-2.895.033-5.807.142A225.156,225.156,0,0,0,25.9,7.487C15.652,10.277,8.676,14.754,3.79,23.348,1.356,27.649-.872,32.294.341,37.035c1.062,4.029,6.8,5.428,11.416,6.18,4.43.688,14.519,1.264,17.2-2.022,1.158-1.415,1.023-2.751.065-4.446-.99-1.8-3.552-3.1-5.979-3.564-2.73-.5-8.007-.808-9.26-1.36-.694-.312-1.429-.712-1.429-.712s.311-.311.6-.575a14.1,14.1,0,0,1,3.72-1.552c1.573-.336,3.264-.911,4.972-1.382,11.806-3.278,35.212-3.821,45.932-3.437,41.629,1.551,80.375,10.856,119.593,27,38.4,15.814,82.053,42.779,107.526,75.6,9.627,12.416,21.7,32.788,23.164,49.992a56.343,56.343,0,0,1-13.282,41.787c-7.264,8.306-16.867,14.439-27.332,19.372-23.844,11.3-52.845,13.614-78.828,12.927-3.409-.088-16.245-1.247-19.286-1.695-5.276-.863-11.982-2.151-11.982-2.151l-1.708-80.523s8.1.289,13.795.624c14.576.863,44.7,5.859,59.789,11.855,3.225,1.263,6.586,3.239,6.89,6.437.215,2.446-1.725,4.541-3.9,6.468a16.648,16.648,0,0,1-3.393,2.4c-2.61,1.391-7.007,3.7-7.318,4.1a2.584,2.584,0,0,0,.256,3.622c2.9,2.246,12.325,3.509,14.839,3.341,8.422-.472,16.731-6.179,21.113-13.886,3.9-6.819,4.3-12.033,1.725-19.588-2.754-8.243-11.264-16.037-20.372-20.65-11.048-5.62-30.317-9.833-40.207-11.4a182.824,182.824,0,0,0-23.358-2.6c-7.663-.2-20.108.161-20.108.161s-.239-10.93-.725-18.189c-.806-11.928-4.1-35.368-14.944-42.108-1.98-1.239-4.415-1.368-5.78.487-2.107,2.742-4.165,13.224-4.645,15.966-.886,5.029-3.649,28.829-3.569,32.459.072,3.678-.3,13.767-.511,14.079a2.005,2.005,0,0,1-.422.391,118.753,118.753,0,0,1-11.815,2.158c-9.467,1.375-32.225,8.819-39.561,12.057-9.978,4.373-24.546,12.056-28.617,22.233-2.938,7.3-1.829,13.431,2.043,20.322,4.981,8.826,11.519,15.717,18.791,22.6,2.6,2.462,14.353,12.328,17.083,14.35a218.4,218.4,0,0,0,33.031,20.276c3.872,1.935,8.5,4.125,8.5,4.125s.918,9.33,1.8,14.7c1.07,6.668,3.306,12.488,9.5,15.119,3.784,1.6,8.118,1.367,12.2.583,3.377-.64,5.7-2.151,7.13-5.085a28.842,28.842,0,0,0,1.66-5.747c.324-2.822.3-6.819.3-6.819s9.979,2.285,16.685,3.525a201.7,201.7,0,0,0,59.07,1.719c27.141-3.318,58.768-13.39,79.187-31.074,5.508-4.757,14.751-15.877,18.647-22.9a145.33,145.33,0,0,0,6.595-13.215,93.748,93.748,0,0,0,3.639-12.832c.263-1.551,1.877-13.319,1.19-19.539h0c.112-2.63-1.341-9.393-1.5-10.617-.112-.12-.877-3.438-1.4-5.692a91.428,91.428,0,0,0-4.454-11.5c-2.139-3.845-3.448-7.115-5.1-10.457-6.961-13.863-21.259-31.339-32.754-42.747-5.923-5.908-14.136-13.288-20.41-18.42-3-2.5-22.36-16.74-25.665-18.923a439.257,439.257,0,0,0-41-23.128,428.82,428.82,0,0,0-56.3-21.929C134.868,4.991,107.265-.312,78.319.014ZM134.05,167.781s-.274,11.9-.321,23.958c-.12,22.809.487,45.97.487,45.97s-8.126-2.909-13.011-4.948c-14.313-6-33.71-18.349-43.281-26.336-2.275-1.911-10.418-9.753-11.855-11.44-2.5-2.934-4.718-5.74-4.111-9.37.6-3.47,7.473-6.356,10.865-7.54,11.255-4.053,30.787-7.435,41.188-8.546C122.17,168.619,134.05,167.781,134.05,167.781Z" transform="translate(0 184.384)"/>
    <path id="path2673" d="M172.827,7.6a69.678,69.678,0,0,0-26.752,5.535A89.664,89.664,0,0,0,115.8,33.87c-8.062,8.57-14.272,19.412-13.609,31.2a35.1,35.1,0,0,0,3.591,13c1.6,2.854,4.582,5.909,5.245,8.883.375,1.791.032,4.086.112,6.188a18.276,18.276,0,0,0,5.819,12.911c2.586,2.263,4.83,2.175,7.488.216a11.323,11.323,0,0,0,2.514-2.911c1.165-1.959,2.275-4.678,3.32-5.773.16-.152.9.248,1.485.672a30.78,30.78,0,0,0,6.051,1.566c2.347.176,4.844.808,7.255,1.008,7.791.7,18.48-1.8,25.329-4.485,15.63-6.14,27.691-14.926,39.912-27.454,7.128-7.259,13.387-19.211,11.088-30.092-1.142-5.412-3.632-9.146-8.126-13.055A30.316,30.316,0,0,0,201.7,20.256a12.106,12.106,0,0,1-3.025-.672,8.393,8.393,0,0,1-1.653-1.911c-2.73-3.462-8.173-6.787-12.061-8.13A38.564,38.564,0,0,0,172.827,7.6ZM152.875,33.071s-2.53,2.1-4.7,3.941a162.251,162.251,0,0,0-21.585,22.833c-2.842,3.869-6.226,8.955-6.226,8.955s-.727-1.512-1.206-2.664c-3.2-7.995,3.9-17.013,10.37-22.545,3.927-3.374,11.774-8.593,17.122-9.641C148.892,33.487,152.875,33.071,152.875,33.071Zm41.566,2.283A11.318,11.318,0,0,1,199.5,36.51a9.509,9.509,0,0,1,5.787,7.658c1.309,11.241-11.535,20.786-20.276,25.679a68.125,68.125,0,0,1-28.7,8.586v0c-4,.288-14.536.4-14.839-.744-.08-.28.6-1.311,1.509-2.406,1.4-1.791,3.2-4.421,4.989-6.756,7.719-9.969,21.919-22.45,31.961-28.286a32.964,32.964,0,0,1,8.637-3.669,23.992,23.992,0,0,1,5.867-1.219ZM143.622,121.66c-3.042-.025-4.829,4.273-5.682,6.492-2.706,6.955-4.669,23.568-5.188,28.725-1.613,15.7-2.914,52.9-.192,71.856,1.133,7.939,3.745,13.1,11.767,14.767,3.249.672,9.164.543,11.774-1.12a10.859,10.859,0,0,0,4.389-6.54c1.453-6.612.894-15.98.6-23.024-.351-8.306-.558-16.614-.942-25.008-.511-11.233-1.852-39.862-4.981-52.814-1.349-5.564-3.6-10.649-9.076-12.743a13.976,13.976,0,0,0-1.844-.527,3.372,3.372,0,0,0-.624-.065Z" transform="translate(236.877 201.995)"/>
    <path id="path2675" d="M200.328,41.535a163.882,163.882,0,0,0-19.007,1.2c-18.192,2.255-42.508,7.924-52.9,22.89-3.959,5.724-6.3,14.5-4.478,21.65a15.044,15.044,0,0,0,8.023,9.136,46.159,46.159,0,0,0,12.021,2.974c3.959.576,20.412,1.967,30.869,2.863,9.986.823,29.336,2.95,39.81,7.324.886.376,5.395,2.319,6.512,3.686.5.648,1.1,1.63,1.461,1.734.112.027.265-.047.408.017.974.312,1.484,3.335,1.484,3.694-.032,2.806-2.106,5.044-4.253,6.555-15.558,11.033-36.912,14.159-55.9,13.87a44.489,44.489,0,0,1-18.3-3.941c-2.786-1.207-6.443-4.117-5.9-7.243,1.046-6.068,7.727-7.6,13.251-7.068a42.039,42.039,0,0,1,10.155,2.784c12.189,4.821,17.745,8.873,28.481,7.234,4-.6,17.848-3.614,19.732-9.33a4.057,4.057,0,0,0-1.237-3.965c-1.453-1.471-9.794-4.732-12.069-5.555-8.182-2.894-23.653-5.574-32.258-5.893-11.3-.4-26.263,1.711-33.247,11.289a19.165,19.165,0,0,0-.9,20.587c4.909,8.642,14.633,15.342,22.591,19.235a83.9,83.9,0,0,0,44.557,7.97c8.557-.975,15.99-2.718,23.581-6.4,7.28-3.518,15.263-10.145,18.911-18.036,4.869-10.617,4.51-24.631-.878-34.649-3.536-6.612-7.431-10.3-14.048-13.246-7.128-3.2-16.453-4.91-25.969-6.205-.535-.08-.678-.1-1.261-.16L155.7,81.331a9.216,9.216,0,0,1-1.262-.192c-1.908-.416-10.784-1.374-7.679-4.747.886-.991,3.568-1.688,5.125-2.135,19.837-5.428,45.021-4.812,65.864-5.987,4.646-.288,15.239-.919,20.348-2.55,4.861-1.519,8.916-4.973,10.033-10.337.575-2.862-.8-4.2-3.473-5.62-11.882-6.326-29.041-8.315-44.325-8.226Z" transform="translate(285.966 280.698)"/>
    <path id="path2677" d="M229.491,36.207c-2.993-.145-4.764,2.015-4.78,5.406a38.334,38.334,0,0,0,1.381,8.979c2.275,9.33,5.317,19.38,7.807,29.021a266.668,266.668,0,0,1,6.258,30.419c.407,3.118.623,6.044,1.094,9.658.279,2.271.677,13.59.47,13.91-.447.824-1.437.776-2.538-.112a13.742,13.742,0,0,1-2.259-2.814c-6.067-8.978-12.238-18.9-18.664-28.749-5.747-8.786-14.417-21.409-21.01-30.723-2.578-3.646-5.859-7.2-10.457-7.6-6.681-.552-9.769,9.218-11.917,15.2-7.511,21-13.428,52.181-12.095,74.59.391,6.883,2.3,20.491,10.713,23.585h0c3.281,1.215,5.34,1.727,8.046.5,3.808-1.743,4.814-5.148,5.8-9.3,1.517-6.356,1.772-19.26,1.964-24.521.016-.871.806-32.129,1.955-38.813.176-.919.447-2.335,1.125-2.135a3.248,3.248,0,0,1,1.8,1.382c1.788,2.574,13.34,25.528,20.053,37.264,1.972,3.43,13.537,23.5,20.578,27.493,6.434,3.678,15.774.281,20.46-4.068A42.378,42.378,0,0,0,263.6,152.4c4.766-11.129,5.557-27.574,4.615-38.863a134.876,134.876,0,0,0-6.682-32.378c-1-3.11-5.452-14.207-6.577-16.39-3.3-6.46-14.648-25.063-23.205-28.085a7.849,7.849,0,0,0-2.261-.482Z" transform="translate(377.051 268.332)"/>
    <path id="path2679" d="M284.841,41.887c-3.68-.192-11.781,9.53-13.026,11.081-16.508,20.387-31.23,45.769-31.26,71.424a65.931,65.931,0,0,0,5.994,26.447,1.1,1.1,0,0,1,.046,1.183c-12.493,32.73-17.034,47.191-21.528,80.074-1.277,9.4-2.843,25.424,3.7,33.939,3.257,4.309,7.073,6.642,11.416,8.929,3.345,1.791,4.454,2.328,7.215.7a4.184,4.184,0,0,0,1.916-1.928c.343-.672,7.049-32.1,9.4-44.09,1.565-8.083,8.325-34.09,11.4-43.747,1.78-5.6,4.207-12.728,4.207-12.728l0,0s2.371.122,4.406.168c15.055.352,30.405-5.557,43.488-14.239,12.8-8.49,22.208-18.2,29.1-31.675,5.811-11.3,8.5-26.135,7.216-39.326-1.1-11.041-5.365-24.656-15.151-31.092-6.171-4.083-11.853-3.268-18.184.01-7.982,4.149-11.256,7.084-18.64,14.143-3.512,3.35-15.716,16.053-18.885,19.635-3.129,3.526-5.829,6.8-9.581,11.745-6.873,9.01-17.282,23.609-17.282,23.609a60.875,60.875,0,0,1-.725-6.221,77.724,77.724,0,0,1,1.7-10.042c3.129-10.241,4.518-14.838,10.92-26.006,5.692-9.993,14.016-22.065,15.868-33.913.551-3.6-.048-7.907-3.735-8.083ZM336.89,78.42a3.04,3.04,0,0,1,2.3,1.089c3.7,4.885,3.042,15.863,1.741,21.1a52.872,52.872,0,0,1-18.089,28.541c-5.859,4.685-16.835,10.36-24.905,11.719-3.792.64-7.479.783-7.735.328-.128-.216,3.536-6.652,4.758-8.45,5.684-8,11.622-18.331,17.937-27.349,4.726-6.8,14.625-19.908,22.288-26.336a2.574,2.574,0,0,1,1.7-.641Z" transform="translate(519.286 281.513)"/>
  </g>
</svg>
