<svg xmlns="http://www.w3.org/2000/svg" width="93.874" height="50.851" viewBox="0 0 93.874 50.851">
  <g id="Group_3300" data-name="Group 3300" transform="translate(0 0)">
    <g id="Group_3299" data-name="Group 3299" transform="translate(14.252 0)">
      <g id="Group_3298" data-name="Group 3298" transform="translate(36.018 33.831)">
        <path id="Path_11275" data-name="Path 11275" d="M664.58,66.855a.855.855,0,1,1,.855.855.855.855,0,0,1-.855-.855m.162,0a.7.7,0,1,0,.7-.664.684.684,0,0,0-.7.664" transform="translate(-664.58 -66)" fill="#e31837" fill-rule="evenodd"/>
        <path id="Path_11276" data-name="Path 11276" d="M667.248,68.355h-.162l-.285-.433h-.151v.433h-.14v-.938h.413a.453.453,0,0,1,.234.046.222.222,0,0,1,.105.2c0,.185-.131.251-.3.259Zm-.447-.547c.137,0,.322.026.322-.145,0-.123-.108-.134-.234-.134h-.239v.285Z" transform="translate(-665.96 -67.013)" fill="#e31837" fill-rule="evenodd"/>
      </g>
      <path id="Path_11277" data-name="Path 11277" d="M647.65,47.586c10.359-8.879,24.911-17.511,32.892-20.6-1.243-.794-3.167-1.929-5.323-3.162-10.29,3.394-22.3,10.941-33.089,19.509C643.965,44.656,645.854,46.106,647.65,47.586Z" transform="translate(-614.935 -12.045)" fill="#e31837"/>
      <path id="Path_11278" data-name="Path 11278" d="M623.244,21.048c-1.539-.715-3.187-1.431-4.513-2.018a113.37,113.37,0,0,0-15.391,9.422c1.4.735,2.876,1.618,4.44,2.511A109.07,109.07,0,0,1,623.244,21.048Z" transform="translate(-595.28 -9.618)" fill="#012169"/>
      <path id="Path_11279" data-name="Path 11279" d="M644.534,9.854A67.512,67.512,0,0,0,631.644,5.38c-1.322.493-3.2,1.228-4.484,1.766a73.22,73.22,0,0,1,12.87,4.681C641.386,11.211,643.236,10.407,644.534,9.854Z" transform="translate(-607.35 -2.701)" fill="#e31837"/>
      <path id="Path_11280" data-name="Path 11280" d="M602.134,13.16A139.139,139.139,0,0,0,587,21.58c1.169.528,2.358.987,3.991,1.786a111.826,111.826,0,0,1,15.292-8.933c-1.613-.543-3.167-.977-4.148-1.273Z" transform="translate(-587 -6.644)" fill="#012169"/>
      <path id="Path_11281" data-name="Path 11281" d="M646.184,5.613c1.312-.424,2.881-.848,4.2-1.223a95.55,95.55,0,0,0-13-4.44c-.676.183-2.743.755-4.213,1.2a72.812,72.812,0,0,1,13.013,4.464ZM621.86,24.145c1.564.952,3.27,2.239,4.893,3.31,10.8-8.386,21.448-14.862,33.173-18.523-1.628-.824-3.058-1.559-4.864-2.466C648.014,8.267,636.062,13.061,621.86,24.145Z" transform="translate(-604.665 0.05)" fill="#e31837"/>
    </g>
    <path id="Path_11282" data-name="Path 11282" d="M0,35.569H2.624c1.329,0,1.955-.686,1.955-1.655a1.4,1.4,0,0,0-1.27-1.476,1.264,1.264,0,0,0,1.1-1.312c0-.858-.627-1.543-1.955-1.543H0Zm2.28-2.546c.492,0,.832.239.832.746,0,.531-.328.746-.832.746H1.432V33.024Zm-.164-2.4c.492,0,.832.215.832.7s-.328.7-.832.7H1.432V30.623Zm7.751-1.055H8.391l-2.252,6H7.632l.405-1.243H10.2l.4,1.243h1.509Zm-.735,1.438.709,2.206H8.4ZM19.61,29.575H18.255v4.007L15.7,29.568H14.174v6h1.355v-4l2.555,4H19.61Zm6.292,6-1.968-3.052v3.046H22.47v-6h1.458v2.89l1.878-2.888h1.629l-1.968,2.88,2.152,3.116Zm6.874-3a1.675,1.675,0,1,0,3.308-.007,1.675,1.675,0,1,0-3.31,0Zm-1.543,0a3.2,3.2,0,1,1,3.2,3.129A3.043,3.043,0,0,1,31.232,32.576Zm8.4,3h1.458V33.2h1.894V32.056h-1.9V30.718h2.3l.258-1.148h-4.01Zm10.812-6H48.969l-2.247,6h1.493l.4-1.243h2.17l.385,1.237h1.509Zm-.738,1.432.712,2.213h-1.44Zm11.67-1.432H59.671l-1.56,3.236L56.56,29.57H54.854v6h1.312V31.557L58.1,35.569l1.935-4.012v4.012h1.355Zm2.829,6h4.1V34.428H65.666V33.085h2.083V31.969H65.666V30.718h2.418l.258-1.148H64.207Zm9.662,0h1.579l-1.493-2.552a1.539,1.539,0,0,0,1.209-1.64c0-1.089-.656-1.8-2.132-1.8h-2.3v5.99h1.437V33.2h.385Zm-1.087-4.9c.6,0,.917.266.917.763s-.317.773-.917.773h-.613V30.678Zm4.861,4.9H79.1V29.568H77.643Zm8.65-1.616a2.647,2.647,0,0,1-1.552.523,1.913,1.913,0,0,1-.034-3.825,2.5,2.5,0,0,1,1.517.523V29.825a3.454,3.454,0,0,0-1.706-.385,3.132,3.132,0,1,0,.008,6.259,3.671,3.671,0,0,0,1.766-.385Zm5.342-4.389H90.159l-2.247,6H89.39l.4-1.243h2.168l.4,1.243h1.509ZM90.9,31.006l.712,2.213h-1.44Z" transform="translate(0 15.145)" fill="#012169"/>
  </g>
</svg>
