<svg xmlns="http://www.w3.org/2000/svg" width="332.543" height="86.999" viewBox="0 0 332.543 86.999">
  <g id="Group_4036" data-name="Group 4036" transform="translate(-59.792 -343.792)">
    <path id="Path_12588" data-name="Path 12588" d="M521.585,413.424c-2.01-4.02-5.71-6.771-13.464-10.011-6.331-2.645-9.508-4.477-11.448-6.6a6.63,6.63,0,0,1-1.881-5.691,7.6,7.6,0,0,1,2.214-5.388c1.911-2.044,4.541-2.759,7.689-2.094,5.166,1.089,8.481,4.667,11.334,12.227,1.018,2.7,1.138,2.782,2.968,2.1l1.157-.43-.041-3.108c-.023-1.71-.11-5.3-.194-7.976l-.154-4.868-.862-.365c-4.724-2-13.741-3.246-19.615-2.71-6.67.609-11.567,2.726-15.339,6.634a17.619,17.619,0,0,0-5.14,13.844c.249,4.473,1.572,7.684,4.328,10.505,2.556,2.614,4.7,3.851,10.853,6.255,9.929,3.878,12.557,6.175,12.535,10.957a8.446,8.446,0,0,1-6.062,8.371,15.775,15.775,0,0,1-6.8-.008c-4.934-1.3-8.712-5.574-11.933-13.5l-.824-2.032-.969.045a5.116,5.116,0,0,0-1.63.361l-.661.317.062,3.464c.034,1.9.129,5.921.212,8.925l.15,5.462,1.1.474c2.257.97,9.036,2.454,13.3,2.91h0c.526.056,3.431.076,6.454.046,5.247-.058,5.625-.1,8.264-.782,7.788-2.035,12.835-6.375,15.07-12.97a14.854,14.854,0,0,0,.881-5.654C523.261,418.12,522.89,416.034,521.585,413.424Z" transform="translate(-130.819 -10.832)" fill="#030504"/>
    <path id="Path_12589" data-name="Path 12589" d="M91.273,353.858l.13-1.255h7.526c8.644,0,10.059.181,13.12,1.684,4.438,2.178,7.681,6.488,10.51,13.975,1.155,3.047,1.136,3.038,3.7,2.26l1.7-.517-.155-11.033c-.086-6.068-.225-11.463-.31-11.989l-.155-.956-32.985-.069c-18.142-.038-33.339,0-33.772.072l-.787.137.069,1.96.069,1.96,2.511.3c3.259.39,5.2,1.3,6.361,2.989,2.6,3.8,3.076,8.964,3.071,33.527-.005,26.156-.55,32.51-3.066,35.807-1.3,1.7-2.351,2.259-5.289,2.8-3.832.711-3.706.622-3.706,2.6,0,1.1.1,1.7.3,1.779h0c.427.174,42.618.187,43.07.013.578-.222.543-3.339-.041-3.641a22.1,22.1,0,0,0-3.167-.628,21.3,21.3,0,0,1-3.709-.83c-2.761-1.206-4.3-4.529-4.877-10.548-.414-4.317-.738-12.272-.738-18.153v-5.4l2.57.078c5.473.168,8.3.456,9.446.962,2.476,1.095,4.479,4.15,5.521,8.418l.552,2.272,1.952.069,1.952.069V373.866l-1.952.069-1.952.069-.57,2.267c-1.1,4.4-2.908,7.1-5.558,8.323-1.079.5-1.845.636-4.423.79-1.715.1-4.113.192-5.33.2l-2.211.012v-7.112C90.646,371.352,91.03,356.211,91.273,353.858Z" transform="translate(0 -0.673)" fill="#030504"/>
    <path id="Path_12590" data-name="Path 12590" d="M274.545,378.246a13.459,13.459,0,0,0-6.526,1.338c-4.1,1.877-7.176,4.952-9.923,9.905l-.858,1.547.111-2.748c.06-1.512.162-4.337.226-6.276l.116-3.527h-.59c-.756,0-24.44,4.734-25.156,5.028-.469.192-.538.4-.538,1.537,0,1.172.057,1.328.538,1.427.3.06,1.387.274,2.417.473,2.094.4,2.717.727,3.58,1.87,1.592,2.109,1.921,5.829,1.9,21.581-.014,12.88-.283,19.294-.893,21.3-.751,2.461-2.081,3.717-4.4,4.15-.749.139-1.738.334-2.2.432l-.842.178-.069,1.652c-.05,1.163.021,1.713.239,1.85l.006,0c.171.109,8.272.172,18,.141l17.692-.057.069-1.855a4.667,4.667,0,0,0-.12-1.855,35.65,35.65,0,0,1-6.251-.857c-1.995-.832-2.961-2.623-3.378-6.259-.489-4.267-.782-14.878-.644-23.577.137-8.784.137-8.819.687-9.407,1.282-1.375,4.53-2.446,7.437-2.452a16.7,16.7,0,0,1,7.3,1.827,9.607,9.607,0,0,0,2.519.962c.32-.122,6.125-15.459,6.125-16.183C281.133,379.321,277.842,378.246,274.545,378.246Z" transform="translate(-53.729 -10.782)" fill="#030504"/>
    <path id="Path_12591" data-name="Path 12591" d="M435.472,380.723c-6.566-3.29-16.71-3.054-24.129.563-7.029,3.429-11.871,9.144-14.572,17.211a34.149,34.149,0,0,0-1.708,13.033,34.947,34.947,0,0,0,.6,6.816c2.772,12.369,11.254,20.781,23.114,22.92v0a44.83,44.83,0,0,0,11.179.02,30.684,30.684,0,0,0,10.853-4.186c3.346-2.26,6.776-5.657,6.776-6.711,0-.643-1.149-2.123-1.649-2.123a8.233,8.233,0,0,0-2.061,1.077,18.255,18.255,0,0,1-10.751,2.983c-6,0-9.8-1.5-13.627-5.358a15.271,15.271,0,0,1-3.264-4.324,29.717,29.717,0,0,1-3.123-12.845l-.069-2.09,17.692-.061,17.692-.061.079-1.2a31.363,31.363,0,0,0-.192-3.825C447.214,391.825,442.865,384.427,435.472,380.723Zm-7.029,22.052c-4.991.275-15.709.419-15.84.206v0a35.025,35.025,0,0,1,.708-6.75q1.6-7.968,5.113-11.511a6.054,6.054,0,0,1,2.865-1.972,9.3,9.3,0,0,1,1.782-.381,5.3,5.3,0,0,1,3.355,1.451c2.586,2.384,4.065,7.5,4.359,15.078l.145,3.74Z" transform="translate(-104.958 -10.837)" fill="#030504"/>
    <path id="Path_12592" data-name="Path 12592" d="M340.861,368.742a21.216,21.216,0,0,0-5.427-.256,24.133,24.133,0,0,0-10.044,2.184c-1.021.473-1.914.859-1.982.859s-.058-6.241.023-13.866c.117-10.746.086-13.868-.137-13.871-.778-.013-25.194,4.644-25.462,4.857-.2.159-.285.675-.239,1.458.078,1.358-.082,1.251,2.895,1.919a8.236,8.236,0,0,1,2.33.866c.994.707,1.82,2.235,2.392,4.433.452,1.732.515,2.97.721,14.682.213,11.955.172,24.249-.157,46.769l-.137,9.354,1.752.4c2.534.576,9.779,1.782,12.151,2.022h0a89.44,89.44,0,0,0,14.171-.085c11.212-1.69,19.663-8.193,23.6-18.161a44.031,44.031,0,0,0,2.4-9.734,57.6,57.6,0,0,0-.44-13.469C356.887,378.186,350.071,370.647,340.861,368.742Zm.592,37.8c-1.1,6.966-3.1,12.342-5.883,15.815a12.317,12.317,0,0,1-5.344,3.8,18.01,18.01,0,0,1-5.712.188v0a2.105,2.105,0,0,1-1.149-.418c-.412-.494-.854-32.948-.58-42.442l.216-7.531,1.912-.55a11.84,11.84,0,0,1,8.013.334c4.328,2.05,7.166,7.112,8.641,15.4A78.89,78.89,0,0,1,341.454,406.545Z" transform="translate(-74.446)" fill="#030504"/>
    <path id="Path_12593" data-name="Path 12593" d="M204.684,404.945c-1.252-10.61-5.749-18.375-13.174-22.745-8.25-4.856-20.788-5.138-29.7-.666a28.864,28.864,0,0,0-14.022,16.593,42.66,42.66,0,0,0,0,24.575,26.779,26.779,0,0,0,6.869,11.54,25.964,25.964,0,0,0,14.739,7.13,64.5,64.5,0,0,0,10.769.01,33.765,33.765,0,0,0,3.9-.852c10.509-3.044,17.681-11.119,20.144-22.679A55.849,55.849,0,0,0,204.684,404.945Zm-17.966,12.742c-.789,11.157-3.211,17.208-7.727,19.311a8.706,8.706,0,0,1-6.114.085v0c-3.927-1.781-6.712-7.2-8.106-15.765a108.208,108.208,0,0,1-.166-23.427c1.132-8.312,3.524-13.222,7.248-14.881a8.173,8.173,0,0,1,8.364,1.59C185.269,389.163,187.818,402.14,186.718,417.688Z" transform="translate(-26.985 -10.823)" fill="#030504"/>
  </g>
</svg>
