<svg xmlns="http://www.w3.org/2000/svg" width="140.877" height="25.158" viewBox="0 0 140.877 25.158">
  <path id="Path_6037" data-name="Path 6037" d="M424.027,764.594h-7.462v19.119H411.2V764.594h-7.211v-4.4h20.041Zm20.461,7.462c0,4.654-2.767,7.924-6.75,7.924-4.192,0-6.959-3.018-6.959-7.924.209-4.655,2.767-7.925,6.959-7.925C441.721,764.132,444.488,767.4,444.488,772.056Zm5.618,0a12.474,12.474,0,1,0-12.577,12.579,12.491,12.491,0,0,0,12.577-12.579Zm15.137,3.019v8.638h-5.366v-8.638l-9.309-14.884H456.6l5.831,9.769,6.035-9.769h6.289Zm28.637-3.019c0,4.654-2.561,7.924-6.751,7.924s-6.751-3.018-6.751-7.924c0-4.655,2.767-7.925,6.961-7.925C491.319,764.132,493.88,767.4,493.88,772.056Zm5.828,0a12.51,12.51,0,0,0-12.438-12.579h-.142a12.54,12.54,0,0,0-12.368,12.788,12.285,12.285,0,0,0,12.368,12.37,12.51,12.51,0,0,0,12.581-12.579Zm21.174-7.462H513.46v19.119h-5.366V764.594h-7.213v-4.4h20Zm11.194.712,3.268,9.055h-6.75l3.481-9.055Zm3.268-5.116h-6.538l-9.561,23.522h5.828l1.887-5.158H536.98l2.1,5.158h5.785Z" transform="translate(-403.986 -759.477)" fill="#e0001a" fill-rule="evenodd"/>
</svg>
