<svg xmlns="http://www.w3.org/2000/svg" viewBox="0 0 330.64 108.29"><defs><style>.cls-1{fill:#022169;}</style></defs><title>jetblue</title><g id="Layer_2" data-name="Layer 2"><g id="Layer_1-2" data-name="Layer 1"><path class="cls-1" d="M10.42,24.85H22.79V91.08c0,10.3-7.52,17.21-17.94,17.21H0V96.67H3.52c4.24,0,6.9-2,6.9-6.55V24.85M10.42,0H22.78V12.36H10.42Z"/><path class="cls-1" d="M43.12,50.05c.24-9.33,5.7-14.3,13-14.3s12.61,5,13,14.3H43.12m38.3,10.19V50.05c0-15.88-11.76-25.93-25.33-25.93-11.88,0-25.33,7.76-25.33,31.63C30.76,81,45.42,87,58,87a28.31,28.31,0,0,0,22.18-9.94l-9-7.63a19.3,19.3,0,0,1-13.45,5.93c-8.49,0-14.67-5.08-14.67-15.15Z"/><path class="cls-1" d="M91.21,6.18h12.37V24.85h9V34.3h-9V70.06c0,3.4,1.33,4.6,4.36,4.6h4.61V86.29h-6.43c-8.61,0-14.91-5.45-14.91-15.15V34.29H85V24.85h6.18Z"/><path class="cls-1" d="M153.63,48c9.7,0,14.06,6.18,14.06,13s-4.36,13-14.06,13H133.51V48h20.12M120.42,86.29h36.37c13,0,24-9.58,24-24.48,0-8.73-4.61-17.7-14.06-19.88v-.24c10.06-4.48,12.73-11.39,12.73-18.54C179.45,9.58,170.72,0,153.87,0H120.42V86.29m32-74.65c9.45,0,13.94,5.69,13.94,12.35s-4.49,12.37-13.94,12.37H133.51V11.64Z"/><path class="cls-1" d="M187.88,0h12.36V70.41c0,2.79,1.57,4.24,4.6,4.24h4.25V86.29h-5.46c-9,0-15.75-3.88-15.75-14.9Z"/><path class="cls-1" d="M214.3,24.85h12.36v36.6c0,8.36,5.21,13.2,12.24,13.2S251,69.81,251,61.45V24.85h12.37V86.29H251V79.75h-.24C246.9,84.6,241.33,87,234.91,87c-9.7,0-20.61-7.39-20.61-21.33Z"/><path class="cls-1" d="M282.39,50.05c.24-9.33,5.69-14.3,13-14.3s12.6,5,13,14.3H282.39m38.3,10.19V50.05c0-15.88-11.76-25.93-25.33-25.93-11.88,0-25.33,7.76-25.33,31.63C270,81,284.69,87,297.3,87a28.31,28.31,0,0,0,22.18-9.94l-9-7.63a19.26,19.26,0,0,1-13.45,5.93c-8.48,0-14.66-5.08-14.66-15.15Z"/><path class="cls-1" d="M325.2,23.78a5.45,5.45,0,1,1-3.87,1.59A5.46,5.46,0,0,1,325.2,23.78Zm4.37,5.45a4.39,4.39,0,1,0-4.39,4.39,4.39,4.39,0,0,0,4.39-4.39Zm-6.44-3.32h2.42c1.46,0,2.19.59,2.19,1.9a1.66,1.66,0,0,1-1.44,1.85h-.19l1.82,2.61h-1.27l-1.82-2.58h-.6v2.58h-1.09Zm1.09,2.79H325c.88,0,1.68-.06,1.68-.89s-.73-.91-1.44-.91h-1Z"/></g></g></svg>